# xmcd
#
# Track frame offsets: 
#        150
#        13985
#        33846
#        52919
#        69290
#        82972
#        101077
#        123640
#        141662
#        165068
#        181250
#
# Disc length: 2665 seconds
#
# Revision: 1
# Processed by: cddbd v1.5.2PL0 Copyright (c) Steve Scherf et al.
# Submitted via: ExactAudioCopy v1.0b3
#
DISCID=890a670b
DTITLE=Delta Moon - Black Cat Oil
DYEAR=2012
DGENRE=Blues
TTITLE0=Down And Dirty
TTITLE1=Blues In A Bottle
TTITLE2=Walk Out In The River
TTITLE3=Black Cat Oil
TTITLE4=Wishbone
TTITLE5=Black Coffee
TTITLE6=Neon Jesus
TTITLE7=Jukin
TTITLE8=Sunshine
TTITLE9=Applejack
TTITLE10=Write Me A Few Of Your Lines
EXTD=
EXTT0=
EXTT1=
EXTT2=
EXTT3=
EXTT4=
EXTT5=
EXTT6=
EXTT7=
EXTT8=
EXTT9=
EXTT10=
PLAYORDER=
